G75*
%MOIN*%
%OFA0B0*%
%FSLAX25Y25*%
%IPPOS*%
%LPD*%
%AMOC8*
5,1,8,0,0,1.08239X$1,22.5*
%
%ADD10C,0.00600*%
%ADD11C,0.01000*%
%ADD12C,0.00000*%
D10*
X0178290Y0294298D02*
X0177123Y0295465D01*
X0177123Y0301304D01*
X0180626Y0301304D01*
X0181793Y0300136D01*
X0181793Y0297801D01*
X0180626Y0296633D01*
X0177123Y0296633D01*
X0178290Y0294298D02*
X0179458Y0294298D01*
X0184122Y0301304D02*
X0185290Y0301304D01*
X0187625Y0298968D01*
X0187625Y0296633D02*
X0187625Y0301304D01*
X0189952Y0300136D02*
X0191120Y0301304D01*
X0193455Y0301304D01*
X0194623Y0300136D01*
X0194623Y0297801D01*
X0193455Y0296633D01*
X0191120Y0296633D01*
X0189952Y0297801D01*
X0189952Y0300136D01*
X0196954Y0297801D02*
X0196954Y0296633D01*
X0198122Y0296633D01*
X0198122Y0297801D01*
X0196954Y0297801D01*
X0200449Y0298968D02*
X0205120Y0298968D01*
X0205120Y0297801D02*
X0205120Y0300136D01*
X0203952Y0301304D01*
X0201617Y0301304D01*
X0200449Y0300136D01*
X0200449Y0298968D01*
X0201617Y0296633D02*
X0203952Y0296633D01*
X0205120Y0297801D01*
X0207447Y0296633D02*
X0207447Y0303639D01*
X0209782Y0301304D01*
X0212118Y0303639D01*
X0212118Y0296633D01*
X0214445Y0298968D02*
X0219116Y0298968D01*
X0219116Y0297801D02*
X0219116Y0300136D01*
X0217948Y0301304D01*
X0215613Y0301304D01*
X0214445Y0300136D01*
X0214445Y0298968D01*
X0215613Y0296633D02*
X0217948Y0296633D01*
X0219116Y0297801D01*
X0221446Y0296633D02*
X0222613Y0297801D01*
X0222613Y0302471D01*
X0221446Y0301304D02*
X0223781Y0301304D01*
X0226108Y0300136D02*
X0227276Y0301304D01*
X0229611Y0301304D01*
X0230779Y0300136D01*
X0230779Y0297801D01*
X0229611Y0296633D01*
X0227276Y0296633D01*
X0226108Y0297801D01*
X0226108Y0300136D01*
X0233106Y0300136D02*
X0233106Y0296633D01*
X0235442Y0296633D02*
X0235442Y0300136D01*
X0234274Y0301304D01*
X0233106Y0300136D01*
X0235442Y0300136D02*
X0236609Y0301304D01*
X0237777Y0301304D01*
X0237777Y0296633D01*
X0240104Y0298968D02*
X0244775Y0298968D01*
X0244775Y0297801D02*
X0244775Y0300136D01*
X0243607Y0301304D01*
X0241272Y0301304D01*
X0240104Y0300136D01*
X0240104Y0298968D01*
X0241272Y0296633D02*
X0243607Y0296633D01*
X0244775Y0297801D01*
X0247102Y0296633D02*
X0249438Y0298968D01*
X0248270Y0298968D02*
X0251773Y0298968D01*
X0251773Y0296633D02*
X0251773Y0303639D01*
X0248270Y0303639D01*
X0247102Y0302471D01*
X0247102Y0300136D01*
X0248270Y0298968D01*
X0361895Y0299128D02*
X0361895Y0298060D01*
X0362963Y0298060D01*
X0362963Y0299128D01*
X0361895Y0299128D01*
X0362963Y0301283D02*
X0367233Y0305553D01*
X0362963Y0305553D01*
X0361895Y0304485D01*
X0361895Y0302350D01*
X0362963Y0301283D01*
X0367233Y0301283D01*
X0368301Y0302350D01*
X0368301Y0304485D01*
X0367233Y0305553D01*
X0372395Y0305560D02*
X0372395Y0303425D01*
X0373463Y0302357D01*
X0375598Y0303425D02*
X0375598Y0305560D01*
X0374530Y0306627D01*
X0373463Y0306627D01*
X0372395Y0305560D01*
X0372395Y0308802D02*
X0378801Y0308802D01*
X0376665Y0309870D02*
X0376665Y0312005D01*
X0375598Y0313073D01*
X0372395Y0313073D01*
X0372395Y0315248D02*
X0372395Y0317383D01*
X0372395Y0316316D02*
X0376665Y0316316D01*
X0376665Y0315248D01*
X0378801Y0316316D02*
X0379868Y0316316D01*
X0375598Y0319545D02*
X0376665Y0320613D01*
X0376665Y0322748D01*
X0375598Y0323815D01*
X0374530Y0323815D01*
X0374530Y0319545D01*
X0373463Y0319545D02*
X0375598Y0319545D01*
X0373463Y0319545D02*
X0372395Y0320613D01*
X0372395Y0322748D01*
X0372395Y0325990D02*
X0372395Y0328126D01*
X0372395Y0327058D02*
X0378801Y0327058D01*
X0378801Y0325990D01*
X0375598Y0330287D02*
X0376665Y0331355D01*
X0376665Y0334558D01*
X0378801Y0334558D02*
X0372395Y0334558D01*
X0372395Y0331355D01*
X0373463Y0330287D01*
X0375598Y0330287D01*
X0376665Y0309870D02*
X0375598Y0308802D01*
X0377733Y0306627D02*
X0378801Y0305560D01*
X0378801Y0303425D01*
X0377733Y0302357D01*
X0376665Y0302357D01*
X0375598Y0303425D01*
X0376665Y0299128D02*
X0372395Y0299128D01*
X0372395Y0300195D02*
X0372395Y0298060D01*
X0373463Y0295885D02*
X0372395Y0294817D01*
X0372395Y0291615D01*
X0370260Y0291615D02*
X0376665Y0291615D01*
X0376665Y0294817D01*
X0375598Y0295885D01*
X0373463Y0295885D01*
X0376665Y0298060D02*
X0376665Y0299128D01*
X0378801Y0299128D02*
X0379868Y0299128D01*
X0377733Y0289439D02*
X0375598Y0289439D01*
X0374530Y0288372D01*
X0374530Y0285169D01*
X0372395Y0285169D02*
X0378801Y0285169D01*
X0378801Y0288372D01*
X0377733Y0289439D01*
X0374530Y0287304D02*
X0372395Y0289439D01*
X0368301Y0292682D02*
X0367233Y0291615D01*
X0368301Y0292682D02*
X0368301Y0294817D01*
X0367233Y0295885D01*
X0366165Y0295885D01*
X0361895Y0291615D01*
X0361895Y0295885D01*
X0366165Y0289439D02*
X0361895Y0287304D01*
X0366165Y0285169D01*
D11*
X0149595Y0231885D02*
X0149595Y0137397D01*
X0149598Y0137112D01*
X0149609Y0136826D01*
X0149626Y0136541D01*
X0149650Y0136257D01*
X0149681Y0135973D01*
X0149719Y0135690D01*
X0149764Y0135409D01*
X0149815Y0135128D01*
X0149873Y0134848D01*
X0149938Y0134570D01*
X0150010Y0134294D01*
X0150088Y0134020D01*
X0150173Y0133747D01*
X0150265Y0133477D01*
X0150363Y0133209D01*
X0150467Y0132943D01*
X0150578Y0132680D01*
X0150695Y0132420D01*
X0150818Y0132162D01*
X0150948Y0131908D01*
X0151084Y0131657D01*
X0151225Y0131409D01*
X0151373Y0131165D01*
X0151526Y0130924D01*
X0151686Y0130688D01*
X0151851Y0130455D01*
X0152021Y0130226D01*
X0152197Y0130001D01*
X0152379Y0129781D01*
X0152565Y0129565D01*
X0152757Y0129354D01*
X0152954Y0129147D01*
X0153156Y0128945D01*
X0153363Y0128748D01*
X0153574Y0128556D01*
X0153790Y0128370D01*
X0154010Y0128188D01*
X0154235Y0128012D01*
X0154464Y0127842D01*
X0154697Y0127677D01*
X0154933Y0127517D01*
X0155174Y0127364D01*
X0155418Y0127216D01*
X0155666Y0127075D01*
X0155917Y0126939D01*
X0156171Y0126809D01*
X0156429Y0126686D01*
X0156689Y0126569D01*
X0156952Y0126458D01*
X0157218Y0126354D01*
X0157486Y0126256D01*
X0157756Y0126164D01*
X0158029Y0126079D01*
X0158303Y0126001D01*
X0158579Y0125929D01*
X0158857Y0125864D01*
X0159137Y0125806D01*
X0159418Y0125755D01*
X0159699Y0125710D01*
X0159982Y0125672D01*
X0160266Y0125641D01*
X0160550Y0125617D01*
X0160835Y0125600D01*
X0161121Y0125589D01*
X0161406Y0125586D01*
X0393690Y0125586D01*
X0393975Y0125589D01*
X0394261Y0125600D01*
X0394546Y0125617D01*
X0394830Y0125641D01*
X0395114Y0125672D01*
X0395397Y0125710D01*
X0395678Y0125755D01*
X0395959Y0125806D01*
X0396239Y0125864D01*
X0396517Y0125929D01*
X0396793Y0126001D01*
X0397067Y0126079D01*
X0397340Y0126164D01*
X0397610Y0126256D01*
X0397878Y0126354D01*
X0398144Y0126458D01*
X0398407Y0126569D01*
X0398667Y0126686D01*
X0398925Y0126809D01*
X0399179Y0126939D01*
X0399430Y0127075D01*
X0399678Y0127216D01*
X0399922Y0127364D01*
X0400163Y0127517D01*
X0400399Y0127677D01*
X0400632Y0127842D01*
X0400861Y0128012D01*
X0401086Y0128188D01*
X0401306Y0128370D01*
X0401522Y0128556D01*
X0401733Y0128748D01*
X0401940Y0128945D01*
X0402142Y0129147D01*
X0402339Y0129354D01*
X0402531Y0129565D01*
X0402717Y0129781D01*
X0402899Y0130001D01*
X0403075Y0130226D01*
X0403245Y0130455D01*
X0403410Y0130688D01*
X0403570Y0130924D01*
X0403723Y0131165D01*
X0403871Y0131409D01*
X0404012Y0131657D01*
X0404148Y0131908D01*
X0404278Y0132162D01*
X0404401Y0132420D01*
X0404518Y0132680D01*
X0404629Y0132943D01*
X0404733Y0133209D01*
X0404831Y0133477D01*
X0404923Y0133747D01*
X0405008Y0134020D01*
X0405086Y0134294D01*
X0405158Y0134570D01*
X0405223Y0134848D01*
X0405281Y0135128D01*
X0405332Y0135409D01*
X0405377Y0135690D01*
X0405415Y0135973D01*
X0405446Y0136257D01*
X0405470Y0136541D01*
X0405487Y0136826D01*
X0405498Y0137112D01*
X0405501Y0137397D01*
X0405501Y0231885D01*
X0405498Y0232170D01*
X0405487Y0232456D01*
X0405470Y0232741D01*
X0405446Y0233025D01*
X0405415Y0233309D01*
X0405377Y0233592D01*
X0405332Y0233873D01*
X0405281Y0234154D01*
X0405223Y0234434D01*
X0405158Y0234712D01*
X0405086Y0234988D01*
X0405008Y0235262D01*
X0404923Y0235535D01*
X0404831Y0235805D01*
X0404733Y0236073D01*
X0404629Y0236339D01*
X0404518Y0236602D01*
X0404401Y0236862D01*
X0404278Y0237120D01*
X0404148Y0237374D01*
X0404012Y0237625D01*
X0403871Y0237873D01*
X0403723Y0238117D01*
X0403570Y0238358D01*
X0403410Y0238594D01*
X0403245Y0238827D01*
X0403075Y0239056D01*
X0402899Y0239281D01*
X0402717Y0239501D01*
X0402531Y0239717D01*
X0402339Y0239928D01*
X0402142Y0240135D01*
X0401940Y0240337D01*
X0401733Y0240534D01*
X0401522Y0240726D01*
X0401306Y0240912D01*
X0401086Y0241094D01*
X0400861Y0241270D01*
X0400632Y0241440D01*
X0400399Y0241605D01*
X0400163Y0241765D01*
X0399922Y0241918D01*
X0399678Y0242066D01*
X0399430Y0242207D01*
X0399179Y0242343D01*
X0398925Y0242473D01*
X0398667Y0242596D01*
X0398407Y0242713D01*
X0398144Y0242824D01*
X0397878Y0242928D01*
X0397610Y0243026D01*
X0397340Y0243118D01*
X0397067Y0243203D01*
X0396793Y0243281D01*
X0396517Y0243353D01*
X0396239Y0243418D01*
X0395959Y0243476D01*
X0395678Y0243527D01*
X0395397Y0243572D01*
X0395114Y0243610D01*
X0394830Y0243641D01*
X0394546Y0243665D01*
X0394261Y0243682D01*
X0393975Y0243693D01*
X0393690Y0243696D01*
X0161406Y0243696D01*
X0161121Y0243693D01*
X0160835Y0243682D01*
X0160550Y0243665D01*
X0160266Y0243641D01*
X0159982Y0243610D01*
X0159699Y0243572D01*
X0159418Y0243527D01*
X0159137Y0243476D01*
X0158857Y0243418D01*
X0158579Y0243353D01*
X0158303Y0243281D01*
X0158029Y0243203D01*
X0157756Y0243118D01*
X0157486Y0243026D01*
X0157218Y0242928D01*
X0156952Y0242824D01*
X0156689Y0242713D01*
X0156429Y0242596D01*
X0156171Y0242473D01*
X0155917Y0242343D01*
X0155666Y0242207D01*
X0155418Y0242066D01*
X0155174Y0241918D01*
X0154933Y0241765D01*
X0154697Y0241605D01*
X0154464Y0241440D01*
X0154235Y0241270D01*
X0154010Y0241094D01*
X0153790Y0240912D01*
X0153574Y0240726D01*
X0153363Y0240534D01*
X0153156Y0240337D01*
X0152954Y0240135D01*
X0152757Y0239928D01*
X0152565Y0239717D01*
X0152379Y0239501D01*
X0152197Y0239281D01*
X0152021Y0239056D01*
X0151851Y0238827D01*
X0151686Y0238594D01*
X0151526Y0238358D01*
X0151373Y0238117D01*
X0151225Y0237873D01*
X0151084Y0237625D01*
X0150948Y0237374D01*
X0150818Y0237120D01*
X0150695Y0236862D01*
X0150578Y0236602D01*
X0150467Y0236339D01*
X0150363Y0236073D01*
X0150265Y0235805D01*
X0150173Y0235535D01*
X0150088Y0235262D01*
X0150010Y0234988D01*
X0149938Y0234712D01*
X0149873Y0234434D01*
X0149815Y0234154D01*
X0149764Y0233873D01*
X0149719Y0233592D01*
X0149681Y0233309D01*
X0149650Y0233025D01*
X0149626Y0232741D01*
X0149609Y0232456D01*
X0149598Y0232170D01*
X0149595Y0231885D01*
D12*
X0253595Y0303933D02*
X0261595Y0303933D01*
X0257595Y0299933D02*
X0257595Y0307933D01*
M02*
