G75*
%MOIN*%
%OFA0B0*%
%FSLAX25Y25*%
%IPPOS*%
%LPD*%
%AMOC8*
5,1,8,0,0,1.08239X$1,22.5*
%
%ADD10C,0.00400*%
%ADD11C,0.01000*%
%ADD12C,0.01200*%
D10*
X0180291Y0109133D02*
X0180291Y0111435D01*
X0181059Y0112202D01*
X0182593Y0112202D01*
X0183361Y0111435D01*
X0183361Y0109133D01*
X0184895Y0109133D02*
X0180291Y0109133D01*
X0183361Y0110668D02*
X0184895Y0112202D01*
X0184895Y0113737D02*
X0180291Y0116806D01*
X0180291Y0113737D02*
X0184895Y0116806D01*
X0190291Y0116806D02*
X0194895Y0113737D01*
X0194895Y0116806D02*
X0190291Y0113737D01*
X0190291Y0112202D02*
X0190291Y0109133D01*
X0190291Y0110668D02*
X0194895Y0110668D01*
X0220291Y0111435D02*
X0220291Y0109900D01*
X0221059Y0109133D01*
X0221826Y0109133D01*
X0222593Y0109900D01*
X0222593Y0111435D01*
X0223361Y0112202D01*
X0224128Y0112202D01*
X0224895Y0111435D01*
X0224895Y0109900D01*
X0224128Y0109133D01*
X0221059Y0112202D02*
X0220291Y0111435D01*
X0220291Y0113737D02*
X0220291Y0116039D01*
X0221059Y0116806D01*
X0224128Y0116806D01*
X0224895Y0116039D01*
X0224895Y0113737D01*
X0220291Y0113737D01*
X0221826Y0118341D02*
X0220291Y0119876D01*
X0221826Y0121410D01*
X0224895Y0121410D01*
X0222593Y0121410D02*
X0222593Y0118341D01*
X0221826Y0118341D02*
X0224895Y0118341D01*
X0230291Y0118341D02*
X0234895Y0118341D01*
X0234895Y0121410D01*
X0234128Y0116806D02*
X0234895Y0116039D01*
X0234895Y0114504D01*
X0234128Y0113737D01*
X0231059Y0113737D01*
X0230291Y0114504D01*
X0230291Y0116039D01*
X0231059Y0116806D01*
X0231059Y0112202D02*
X0230291Y0111435D01*
X0230291Y0109900D01*
X0231059Y0109133D01*
X0231826Y0109133D01*
X0232593Y0109900D01*
X0232593Y0111435D01*
X0233361Y0112202D01*
X0234128Y0112202D01*
X0234895Y0111435D01*
X0234895Y0109900D01*
X0234128Y0109133D01*
X0320291Y0116633D02*
X0322593Y0116633D01*
X0321826Y0118168D01*
X0321826Y0118935D01*
X0322593Y0119702D01*
X0324128Y0119702D01*
X0324895Y0118935D01*
X0324895Y0117400D01*
X0324128Y0116633D01*
X0320291Y0116633D02*
X0320291Y0119702D01*
X0330291Y0119702D02*
X0331059Y0118168D01*
X0332593Y0116633D01*
X0332593Y0118935D01*
X0333361Y0119702D01*
X0334128Y0119702D01*
X0334895Y0118935D01*
X0334895Y0117400D01*
X0334128Y0116633D01*
X0332593Y0116633D01*
X0338414Y0117400D02*
X0338414Y0120470D01*
X0339181Y0121237D01*
X0340716Y0121237D01*
X0341483Y0120470D01*
X0341483Y0118935D02*
X0339949Y0118935D01*
X0341483Y0118935D02*
X0341483Y0117400D01*
X0340716Y0116633D01*
X0339181Y0116633D01*
X0338414Y0117400D01*
X0343018Y0116633D02*
X0343018Y0121237D01*
X0345320Y0121237D01*
X0346087Y0120470D01*
X0346087Y0118935D01*
X0345320Y0118168D01*
X0343018Y0118168D01*
X0347622Y0116633D02*
X0349157Y0116633D01*
X0348389Y0116633D02*
X0348389Y0121237D01*
X0347622Y0121237D02*
X0349157Y0121237D01*
X0350691Y0120470D02*
X0350691Y0117400D01*
X0351458Y0116633D01*
X0352993Y0116633D01*
X0353760Y0117400D01*
X0353760Y0120470D01*
X0352993Y0121237D01*
X0351458Y0121237D01*
X0350691Y0120470D01*
X0360291Y0121039D02*
X0361059Y0121806D01*
X0361826Y0121806D01*
X0362593Y0121039D01*
X0363361Y0121806D01*
X0364128Y0121806D01*
X0364895Y0121039D01*
X0364895Y0119504D01*
X0364128Y0118737D01*
X0364895Y0117202D02*
X0364895Y0114133D01*
X0364895Y0115668D02*
X0360291Y0115668D01*
X0361826Y0114133D01*
X0361059Y0118737D02*
X0360291Y0119504D01*
X0360291Y0121039D01*
X0362593Y0121039D02*
X0362593Y0120272D01*
X0370291Y0121039D02*
X0370291Y0119504D01*
X0371059Y0118737D01*
X0371826Y0118737D01*
X0372593Y0119504D01*
X0372593Y0121806D01*
X0371059Y0121806D02*
X0370291Y0121039D01*
X0371059Y0121806D02*
X0374128Y0121806D01*
X0374895Y0121039D01*
X0374895Y0119504D01*
X0374128Y0118737D01*
X0374895Y0117202D02*
X0374895Y0114133D01*
X0374895Y0115668D02*
X0370291Y0115668D01*
X0371826Y0114133D01*
X0380295Y0249133D02*
X0383364Y0252202D01*
X0383364Y0252970D01*
X0382597Y0253737D01*
X0381062Y0253737D01*
X0380295Y0252970D01*
X0380295Y0249133D02*
X0383364Y0249133D01*
X0384899Y0249133D02*
X0387968Y0249133D01*
X0386434Y0249133D02*
X0386434Y0253737D01*
X0384899Y0252202D01*
X0363760Y0259900D02*
X0362993Y0259133D01*
X0361459Y0259133D01*
X0360691Y0259900D01*
X0363760Y0262970D01*
X0363760Y0259900D01*
X0360691Y0259900D02*
X0360691Y0262970D01*
X0361459Y0263737D01*
X0362993Y0263737D01*
X0363760Y0262970D01*
X0359157Y0262970D02*
X0358389Y0263737D01*
X0356855Y0263737D01*
X0356087Y0262970D01*
X0359157Y0262970D02*
X0359157Y0262202D01*
X0356087Y0259133D01*
X0359157Y0259133D01*
X0343760Y0253737D02*
X0342226Y0252970D01*
X0340691Y0251435D01*
X0342993Y0251435D01*
X0343760Y0250668D01*
X0343760Y0249900D01*
X0342993Y0249133D01*
X0341459Y0249133D01*
X0340691Y0249900D01*
X0340691Y0251435D01*
X0339157Y0249133D02*
X0336087Y0249133D01*
X0337622Y0249133D02*
X0337622Y0253737D01*
X0336087Y0252202D01*
X0335861Y0376633D02*
X0337395Y0378168D01*
X0335861Y0379702D01*
X0332791Y0379702D01*
X0335093Y0381237D02*
X0336628Y0381237D01*
X0337395Y0382004D01*
X0337395Y0384306D01*
X0336628Y0385841D02*
X0337395Y0386608D01*
X0337395Y0388910D01*
X0334326Y0388910D02*
X0334326Y0386608D01*
X0335093Y0385841D01*
X0336628Y0385841D01*
X0334326Y0384306D02*
X0334326Y0382004D01*
X0335093Y0381237D01*
X0335861Y0376633D02*
X0332791Y0376633D01*
X0329895Y0376633D02*
X0325291Y0376633D01*
X0326826Y0378168D01*
X0325291Y0379702D01*
X0329895Y0379702D01*
X0329895Y0382772D02*
X0325291Y0382772D01*
X0325291Y0384306D02*
X0325291Y0381237D01*
X0325291Y0385841D02*
X0325291Y0388143D01*
X0326059Y0388910D01*
X0327593Y0388910D01*
X0328361Y0388143D01*
X0328361Y0385841D01*
X0329895Y0385841D02*
X0325291Y0385841D01*
X0328361Y0387376D02*
X0329895Y0388910D01*
X0317395Y0388143D02*
X0317395Y0385841D01*
X0312791Y0385841D01*
X0312791Y0388143D01*
X0313559Y0388910D01*
X0316628Y0388910D01*
X0317395Y0388143D01*
X0317395Y0384306D02*
X0312791Y0384306D01*
X0312791Y0381237D02*
X0317395Y0384306D01*
X0317395Y0381237D02*
X0312791Y0381237D01*
X0313559Y0379702D02*
X0312791Y0378935D01*
X0312791Y0377400D01*
X0313559Y0376633D01*
X0316628Y0376633D01*
X0317395Y0377400D01*
X0317395Y0378935D01*
X0316628Y0379702D01*
X0315093Y0379702D01*
X0315093Y0378168D01*
X0302395Y0382004D02*
X0301628Y0381237D01*
X0302395Y0382004D02*
X0302395Y0383539D01*
X0301628Y0384306D01*
X0300093Y0384306D01*
X0299326Y0383539D01*
X0299326Y0382772D01*
X0300093Y0381237D01*
X0297791Y0381237D01*
X0297791Y0384306D01*
X0297791Y0385841D02*
X0300861Y0385841D01*
X0302395Y0387376D01*
X0300861Y0388910D01*
X0297791Y0388910D01*
X0292395Y0388143D02*
X0292395Y0385841D01*
X0287791Y0385841D01*
X0287791Y0388143D01*
X0288559Y0388910D01*
X0291628Y0388910D01*
X0292395Y0388143D01*
X0292395Y0384306D02*
X0287791Y0384306D01*
X0287791Y0381237D02*
X0292395Y0384306D01*
X0292395Y0381237D02*
X0287791Y0381237D01*
X0288559Y0379702D02*
X0287791Y0378935D01*
X0287791Y0377400D01*
X0288559Y0376633D01*
X0291628Y0376633D01*
X0292395Y0377400D01*
X0292395Y0378935D01*
X0291628Y0379702D01*
X0290093Y0379702D01*
X0290093Y0378168D01*
X0298559Y0378168D02*
X0301628Y0378168D01*
X0300093Y0376633D02*
X0300093Y0379702D01*
X0276260Y0383737D02*
X0273191Y0383737D01*
X0271656Y0383737D02*
X0271656Y0379900D01*
X0270889Y0379133D01*
X0269355Y0379133D01*
X0268587Y0379900D01*
X0268587Y0383737D01*
X0267053Y0382970D02*
X0266285Y0383737D01*
X0264751Y0383737D01*
X0263983Y0382970D01*
X0263983Y0379900D01*
X0264751Y0379133D01*
X0266285Y0379133D01*
X0267053Y0379900D01*
X0267053Y0382970D01*
X0274726Y0383737D02*
X0274726Y0379133D01*
X0257845Y0379133D02*
X0256310Y0380668D01*
X0257077Y0380668D02*
X0254775Y0380668D01*
X0254775Y0379133D02*
X0254775Y0383737D01*
X0257077Y0383737D01*
X0257845Y0382970D01*
X0257845Y0381435D01*
X0257077Y0380668D01*
X0253241Y0379900D02*
X0253241Y0382970D01*
X0252473Y0383737D01*
X0250939Y0383737D01*
X0250172Y0382970D01*
X0250172Y0379900D01*
X0250939Y0379133D01*
X0252473Y0379133D01*
X0253241Y0379900D01*
X0248637Y0383737D02*
X0245568Y0383737D01*
X0247102Y0383737D02*
X0247102Y0379133D01*
X0244033Y0379900D02*
X0244033Y0382970D01*
X0243266Y0383737D01*
X0241731Y0383737D01*
X0240964Y0382970D01*
X0240964Y0379900D01*
X0241731Y0379133D01*
X0243266Y0379133D01*
X0244033Y0379900D01*
X0239429Y0379133D02*
X0239429Y0383737D01*
X0237894Y0382202D01*
X0236360Y0383737D01*
X0236360Y0379133D01*
X0227395Y0378935D02*
X0226628Y0379702D01*
X0225093Y0379702D01*
X0225093Y0378168D01*
X0223559Y0379702D02*
X0222791Y0378935D01*
X0222791Y0377400D01*
X0223559Y0376633D01*
X0226628Y0376633D01*
X0227395Y0377400D01*
X0227395Y0378935D01*
X0227395Y0381237D02*
X0222791Y0381237D01*
X0227395Y0384306D01*
X0222791Y0384306D01*
X0222791Y0385841D02*
X0222791Y0388143D01*
X0223559Y0388910D01*
X0226628Y0388910D01*
X0227395Y0388143D01*
X0227395Y0385841D01*
X0222791Y0385841D01*
X0217395Y0386608D02*
X0217395Y0388910D01*
X0217395Y0386608D02*
X0216628Y0385841D01*
X0215093Y0385841D01*
X0214326Y0386608D01*
X0214326Y0388910D01*
X0214326Y0384306D02*
X0214326Y0382004D01*
X0215093Y0381237D01*
X0216628Y0381237D01*
X0217395Y0382004D01*
X0217395Y0384306D01*
X0215861Y0379702D02*
X0212791Y0379702D01*
X0209895Y0378935D02*
X0209895Y0377400D01*
X0209128Y0376633D01*
X0207593Y0377400D02*
X0207593Y0378935D01*
X0208361Y0379702D01*
X0209128Y0379702D01*
X0209895Y0378935D01*
X0209895Y0381237D02*
X0205291Y0381237D01*
X0205291Y0383539D01*
X0206059Y0384306D01*
X0207593Y0384306D01*
X0208361Y0383539D01*
X0208361Y0381237D01*
X0208361Y0382772D02*
X0209895Y0384306D01*
X0208361Y0385841D02*
X0209895Y0387376D01*
X0208361Y0388910D01*
X0205291Y0388910D01*
X0205291Y0385841D02*
X0208361Y0385841D01*
X0206059Y0379702D02*
X0205291Y0378935D01*
X0205291Y0377400D01*
X0206059Y0376633D01*
X0206826Y0376633D01*
X0207593Y0377400D01*
X0212791Y0376633D02*
X0215861Y0376633D01*
X0217395Y0378168D01*
X0215861Y0379702D01*
X0186260Y0383168D02*
X0184726Y0381633D01*
X0183191Y0383168D01*
X0183191Y0386237D01*
X0181657Y0385470D02*
X0181657Y0383935D01*
X0180889Y0383168D01*
X0178587Y0383168D01*
X0177053Y0383168D02*
X0177053Y0382400D01*
X0176285Y0381633D01*
X0174751Y0381633D01*
X0173983Y0382400D01*
X0172449Y0383168D02*
X0169379Y0383168D01*
X0169379Y0384702D02*
X0172449Y0384702D01*
X0173983Y0384702D02*
X0174751Y0383935D01*
X0176285Y0383935D01*
X0177053Y0383168D01*
X0178587Y0381633D02*
X0178587Y0386237D01*
X0180889Y0386237D01*
X0181657Y0385470D01*
X0180122Y0383168D02*
X0181657Y0381633D01*
X0186260Y0383168D02*
X0186260Y0386237D01*
X0177053Y0385470D02*
X0176285Y0386237D01*
X0174751Y0386237D01*
X0173983Y0385470D01*
X0173983Y0384702D01*
X0167845Y0383935D02*
X0167077Y0383168D01*
X0164775Y0383168D01*
X0164775Y0381633D02*
X0164775Y0386237D01*
X0167077Y0386237D01*
X0167845Y0385470D01*
X0167845Y0383935D01*
X0166310Y0383168D02*
X0167845Y0381633D01*
X0161706Y0381633D02*
X0161706Y0386237D01*
X0160172Y0386237D02*
X0163241Y0386237D01*
X0158637Y0386237D02*
X0158637Y0381633D01*
X0155568Y0381633D02*
X0155568Y0386237D01*
X0157102Y0384702D01*
X0158637Y0386237D01*
X0146260Y0386237D02*
X0146260Y0381633D01*
X0143191Y0386237D01*
X0143191Y0381633D01*
X0141657Y0382400D02*
X0141657Y0385470D01*
X0140889Y0386237D01*
X0139355Y0386237D01*
X0138587Y0385470D01*
X0138587Y0382400D01*
X0139355Y0381633D01*
X0140889Y0381633D01*
X0141657Y0382400D01*
X0132449Y0381633D02*
X0130914Y0381633D01*
X0131681Y0381633D02*
X0131681Y0384702D01*
X0130914Y0384702D01*
X0129379Y0383935D02*
X0129379Y0382400D01*
X0128612Y0381633D01*
X0126310Y0381633D01*
X0124775Y0381633D02*
X0123241Y0383168D01*
X0124008Y0383168D02*
X0121706Y0383168D01*
X0121706Y0381633D02*
X0121706Y0386237D01*
X0124008Y0386237D01*
X0124775Y0385470D01*
X0124775Y0383935D01*
X0124008Y0383168D01*
X0126310Y0384702D02*
X0128612Y0384702D01*
X0129379Y0383935D01*
X0126310Y0384702D02*
X0126310Y0380098D01*
X0131681Y0386237D02*
X0131681Y0387004D01*
X0358983Y0388737D02*
X0358983Y0384133D01*
X0358983Y0381237D02*
X0361285Y0381237D01*
X0362053Y0380470D01*
X0362053Y0378935D01*
X0361285Y0378168D01*
X0358983Y0378168D01*
X0358983Y0376633D02*
X0358983Y0381237D01*
X0362053Y0384133D02*
X0362053Y0388737D01*
X0360518Y0387202D01*
X0358983Y0388737D01*
X0363587Y0388737D02*
X0366657Y0388737D01*
X0368191Y0388737D02*
X0370493Y0388737D01*
X0371260Y0387970D01*
X0371260Y0386435D01*
X0370493Y0385668D01*
X0368191Y0385668D01*
X0369726Y0385668D02*
X0371260Y0384133D01*
X0371260Y0381237D02*
X0371260Y0376633D01*
X0368191Y0376633D02*
X0368191Y0381237D01*
X0369726Y0379702D01*
X0371260Y0381237D01*
X0368191Y0384133D02*
X0368191Y0388737D01*
X0365122Y0388737D02*
X0365122Y0384133D01*
X0366657Y0381237D02*
X0366657Y0376633D01*
X0365122Y0378168D01*
X0363587Y0376633D01*
X0363587Y0381237D01*
D11*
X0149595Y0231885D02*
X0149595Y0137397D01*
X0149598Y0137112D01*
X0149609Y0136826D01*
X0149626Y0136541D01*
X0149650Y0136257D01*
X0149681Y0135973D01*
X0149719Y0135690D01*
X0149764Y0135409D01*
X0149815Y0135128D01*
X0149873Y0134848D01*
X0149938Y0134570D01*
X0150010Y0134294D01*
X0150088Y0134020D01*
X0150173Y0133747D01*
X0150265Y0133477D01*
X0150363Y0133209D01*
X0150467Y0132943D01*
X0150578Y0132680D01*
X0150695Y0132420D01*
X0150818Y0132162D01*
X0150948Y0131908D01*
X0151084Y0131657D01*
X0151225Y0131409D01*
X0151373Y0131165D01*
X0151526Y0130924D01*
X0151686Y0130688D01*
X0151851Y0130455D01*
X0152021Y0130226D01*
X0152197Y0130001D01*
X0152379Y0129781D01*
X0152565Y0129565D01*
X0152757Y0129354D01*
X0152954Y0129147D01*
X0153156Y0128945D01*
X0153363Y0128748D01*
X0153574Y0128556D01*
X0153790Y0128370D01*
X0154010Y0128188D01*
X0154235Y0128012D01*
X0154464Y0127842D01*
X0154697Y0127677D01*
X0154933Y0127517D01*
X0155174Y0127364D01*
X0155418Y0127216D01*
X0155666Y0127075D01*
X0155917Y0126939D01*
X0156171Y0126809D01*
X0156429Y0126686D01*
X0156689Y0126569D01*
X0156952Y0126458D01*
X0157218Y0126354D01*
X0157486Y0126256D01*
X0157756Y0126164D01*
X0158029Y0126079D01*
X0158303Y0126001D01*
X0158579Y0125929D01*
X0158857Y0125864D01*
X0159137Y0125806D01*
X0159418Y0125755D01*
X0159699Y0125710D01*
X0159982Y0125672D01*
X0160266Y0125641D01*
X0160550Y0125617D01*
X0160835Y0125600D01*
X0161121Y0125589D01*
X0161406Y0125586D01*
X0393690Y0125586D01*
X0393975Y0125589D01*
X0394261Y0125600D01*
X0394546Y0125617D01*
X0394830Y0125641D01*
X0395114Y0125672D01*
X0395397Y0125710D01*
X0395678Y0125755D01*
X0395959Y0125806D01*
X0396239Y0125864D01*
X0396517Y0125929D01*
X0396793Y0126001D01*
X0397067Y0126079D01*
X0397340Y0126164D01*
X0397610Y0126256D01*
X0397878Y0126354D01*
X0398144Y0126458D01*
X0398407Y0126569D01*
X0398667Y0126686D01*
X0398925Y0126809D01*
X0399179Y0126939D01*
X0399430Y0127075D01*
X0399678Y0127216D01*
X0399922Y0127364D01*
X0400163Y0127517D01*
X0400399Y0127677D01*
X0400632Y0127842D01*
X0400861Y0128012D01*
X0401086Y0128188D01*
X0401306Y0128370D01*
X0401522Y0128556D01*
X0401733Y0128748D01*
X0401940Y0128945D01*
X0402142Y0129147D01*
X0402339Y0129354D01*
X0402531Y0129565D01*
X0402717Y0129781D01*
X0402899Y0130001D01*
X0403075Y0130226D01*
X0403245Y0130455D01*
X0403410Y0130688D01*
X0403570Y0130924D01*
X0403723Y0131165D01*
X0403871Y0131409D01*
X0404012Y0131657D01*
X0404148Y0131908D01*
X0404278Y0132162D01*
X0404401Y0132420D01*
X0404518Y0132680D01*
X0404629Y0132943D01*
X0404733Y0133209D01*
X0404831Y0133477D01*
X0404923Y0133747D01*
X0405008Y0134020D01*
X0405086Y0134294D01*
X0405158Y0134570D01*
X0405223Y0134848D01*
X0405281Y0135128D01*
X0405332Y0135409D01*
X0405377Y0135690D01*
X0405415Y0135973D01*
X0405446Y0136257D01*
X0405470Y0136541D01*
X0405487Y0136826D01*
X0405498Y0137112D01*
X0405501Y0137397D01*
X0405501Y0231885D01*
X0405498Y0232170D01*
X0405487Y0232456D01*
X0405470Y0232741D01*
X0405446Y0233025D01*
X0405415Y0233309D01*
X0405377Y0233592D01*
X0405332Y0233873D01*
X0405281Y0234154D01*
X0405223Y0234434D01*
X0405158Y0234712D01*
X0405086Y0234988D01*
X0405008Y0235262D01*
X0404923Y0235535D01*
X0404831Y0235805D01*
X0404733Y0236073D01*
X0404629Y0236339D01*
X0404518Y0236602D01*
X0404401Y0236862D01*
X0404278Y0237120D01*
X0404148Y0237374D01*
X0404012Y0237625D01*
X0403871Y0237873D01*
X0403723Y0238117D01*
X0403570Y0238358D01*
X0403410Y0238594D01*
X0403245Y0238827D01*
X0403075Y0239056D01*
X0402899Y0239281D01*
X0402717Y0239501D01*
X0402531Y0239717D01*
X0402339Y0239928D01*
X0402142Y0240135D01*
X0401940Y0240337D01*
X0401733Y0240534D01*
X0401522Y0240726D01*
X0401306Y0240912D01*
X0401086Y0241094D01*
X0400861Y0241270D01*
X0400632Y0241440D01*
X0400399Y0241605D01*
X0400163Y0241765D01*
X0399922Y0241918D01*
X0399678Y0242066D01*
X0399430Y0242207D01*
X0399179Y0242343D01*
X0398925Y0242473D01*
X0398667Y0242596D01*
X0398407Y0242713D01*
X0398144Y0242824D01*
X0397878Y0242928D01*
X0397610Y0243026D01*
X0397340Y0243118D01*
X0397067Y0243203D01*
X0396793Y0243281D01*
X0396517Y0243353D01*
X0396239Y0243418D01*
X0395959Y0243476D01*
X0395678Y0243527D01*
X0395397Y0243572D01*
X0395114Y0243610D01*
X0394830Y0243641D01*
X0394546Y0243665D01*
X0394261Y0243682D01*
X0393975Y0243693D01*
X0393690Y0243696D01*
X0161406Y0243696D01*
X0161121Y0243693D01*
X0160835Y0243682D01*
X0160550Y0243665D01*
X0160266Y0243641D01*
X0159982Y0243610D01*
X0159699Y0243572D01*
X0159418Y0243527D01*
X0159137Y0243476D01*
X0158857Y0243418D01*
X0158579Y0243353D01*
X0158303Y0243281D01*
X0158029Y0243203D01*
X0157756Y0243118D01*
X0157486Y0243026D01*
X0157218Y0242928D01*
X0156952Y0242824D01*
X0156689Y0242713D01*
X0156429Y0242596D01*
X0156171Y0242473D01*
X0155917Y0242343D01*
X0155666Y0242207D01*
X0155418Y0242066D01*
X0155174Y0241918D01*
X0154933Y0241765D01*
X0154697Y0241605D01*
X0154464Y0241440D01*
X0154235Y0241270D01*
X0154010Y0241094D01*
X0153790Y0240912D01*
X0153574Y0240726D01*
X0153363Y0240534D01*
X0153156Y0240337D01*
X0152954Y0240135D01*
X0152757Y0239928D01*
X0152565Y0239717D01*
X0152379Y0239501D01*
X0152197Y0239281D01*
X0152021Y0239056D01*
X0151851Y0238827D01*
X0151686Y0238594D01*
X0151526Y0238358D01*
X0151373Y0238117D01*
X0151225Y0237873D01*
X0151084Y0237625D01*
X0150948Y0237374D01*
X0150818Y0237120D01*
X0150695Y0236862D01*
X0150578Y0236602D01*
X0150467Y0236339D01*
X0150363Y0236073D01*
X0150265Y0235805D01*
X0150173Y0235535D01*
X0150088Y0235262D01*
X0150010Y0234988D01*
X0149938Y0234712D01*
X0149873Y0234434D01*
X0149815Y0234154D01*
X0149764Y0233873D01*
X0149719Y0233592D01*
X0149681Y0233309D01*
X0149650Y0233025D01*
X0149626Y0232741D01*
X0149609Y0232456D01*
X0149598Y0232170D01*
X0149595Y0231885D01*
D12*
X0165095Y0257433D02*
X0385095Y0257433D01*
X0385397Y0257437D01*
X0385699Y0257448D01*
X0386000Y0257466D01*
X0386301Y0257491D01*
X0386602Y0257524D01*
X0386901Y0257564D01*
X0387199Y0257611D01*
X0387497Y0257666D01*
X0387792Y0257727D01*
X0388086Y0257796D01*
X0388379Y0257872D01*
X0388669Y0257955D01*
X0388958Y0258045D01*
X0389244Y0258142D01*
X0389528Y0258245D01*
X0389809Y0258356D01*
X0390087Y0258473D01*
X0390363Y0258597D01*
X0390635Y0258728D01*
X0390904Y0258865D01*
X0391170Y0259008D01*
X0391432Y0259158D01*
X0391691Y0259315D01*
X0391945Y0259477D01*
X0392196Y0259646D01*
X0392442Y0259820D01*
X0392685Y0260001D01*
X0392922Y0260187D01*
X0393156Y0260379D01*
X0393384Y0260577D01*
X0393608Y0260780D01*
X0393826Y0260988D01*
X0394040Y0261202D01*
X0394248Y0261420D01*
X0394451Y0261644D01*
X0394649Y0261872D01*
X0394841Y0262106D01*
X0395027Y0262343D01*
X0395208Y0262586D01*
X0395382Y0262832D01*
X0395551Y0263083D01*
X0395713Y0263337D01*
X0395870Y0263596D01*
X0396020Y0263858D01*
X0396163Y0264124D01*
X0396300Y0264393D01*
X0396431Y0264665D01*
X0396555Y0264941D01*
X0396672Y0265219D01*
X0396783Y0265500D01*
X0396886Y0265784D01*
X0396983Y0266070D01*
X0397073Y0266359D01*
X0397156Y0266649D01*
X0397232Y0266942D01*
X0397301Y0267236D01*
X0397362Y0267531D01*
X0397417Y0267829D01*
X0397464Y0268127D01*
X0397504Y0268426D01*
X0397537Y0268727D01*
X0397562Y0269028D01*
X0397580Y0269329D01*
X0397591Y0269631D01*
X0397595Y0269933D01*
X0397595Y0344933D01*
X0397591Y0345235D01*
X0397580Y0345537D01*
X0397562Y0345838D01*
X0397537Y0346139D01*
X0397504Y0346440D01*
X0397464Y0346739D01*
X0397417Y0347037D01*
X0397362Y0347335D01*
X0397301Y0347630D01*
X0397232Y0347924D01*
X0397156Y0348217D01*
X0397073Y0348507D01*
X0396983Y0348796D01*
X0396886Y0349082D01*
X0396783Y0349366D01*
X0396672Y0349647D01*
X0396555Y0349925D01*
X0396431Y0350201D01*
X0396300Y0350473D01*
X0396163Y0350742D01*
X0396020Y0351008D01*
X0395870Y0351270D01*
X0395713Y0351529D01*
X0395551Y0351783D01*
X0395382Y0352034D01*
X0395208Y0352280D01*
X0395027Y0352523D01*
X0394841Y0352760D01*
X0394649Y0352994D01*
X0394451Y0353222D01*
X0394248Y0353446D01*
X0394040Y0353664D01*
X0393826Y0353878D01*
X0393608Y0354086D01*
X0393384Y0354289D01*
X0393156Y0354487D01*
X0392922Y0354679D01*
X0392685Y0354865D01*
X0392442Y0355046D01*
X0392196Y0355220D01*
X0391945Y0355389D01*
X0391691Y0355551D01*
X0391432Y0355708D01*
X0391170Y0355858D01*
X0390904Y0356001D01*
X0390635Y0356138D01*
X0390363Y0356269D01*
X0390087Y0356393D01*
X0389809Y0356510D01*
X0389528Y0356621D01*
X0389244Y0356724D01*
X0388958Y0356821D01*
X0388669Y0356911D01*
X0388379Y0356994D01*
X0388086Y0357070D01*
X0387792Y0357139D01*
X0387497Y0357200D01*
X0387199Y0357255D01*
X0386901Y0357302D01*
X0386602Y0357342D01*
X0386301Y0357375D01*
X0386000Y0357400D01*
X0385699Y0357418D01*
X0385397Y0357429D01*
X0385095Y0357433D01*
X0165095Y0357433D01*
X0164793Y0357429D01*
X0164491Y0357418D01*
X0164190Y0357400D01*
X0163889Y0357375D01*
X0163588Y0357342D01*
X0163289Y0357302D01*
X0162991Y0357255D01*
X0162693Y0357200D01*
X0162398Y0357139D01*
X0162104Y0357070D01*
X0161811Y0356994D01*
X0161521Y0356911D01*
X0161232Y0356821D01*
X0160946Y0356724D01*
X0160662Y0356621D01*
X0160381Y0356510D01*
X0160103Y0356393D01*
X0159827Y0356269D01*
X0159555Y0356138D01*
X0159286Y0356001D01*
X0159020Y0355858D01*
X0158758Y0355708D01*
X0158499Y0355551D01*
X0158245Y0355389D01*
X0157994Y0355220D01*
X0157748Y0355046D01*
X0157505Y0354865D01*
X0157268Y0354679D01*
X0157034Y0354487D01*
X0156806Y0354289D01*
X0156582Y0354086D01*
X0156364Y0353878D01*
X0156150Y0353664D01*
X0155942Y0353446D01*
X0155739Y0353222D01*
X0155541Y0352994D01*
X0155349Y0352760D01*
X0155163Y0352523D01*
X0154982Y0352280D01*
X0154808Y0352034D01*
X0154639Y0351783D01*
X0154477Y0351529D01*
X0154320Y0351270D01*
X0154170Y0351008D01*
X0154027Y0350742D01*
X0153890Y0350473D01*
X0153759Y0350201D01*
X0153635Y0349925D01*
X0153518Y0349647D01*
X0153407Y0349366D01*
X0153304Y0349082D01*
X0153207Y0348796D01*
X0153117Y0348507D01*
X0153034Y0348217D01*
X0152958Y0347924D01*
X0152889Y0347630D01*
X0152828Y0347335D01*
X0152773Y0347037D01*
X0152726Y0346739D01*
X0152686Y0346440D01*
X0152653Y0346139D01*
X0152628Y0345838D01*
X0152610Y0345537D01*
X0152599Y0345235D01*
X0152595Y0344933D01*
X0152595Y0269933D01*
X0152599Y0269631D01*
X0152610Y0269329D01*
X0152628Y0269028D01*
X0152653Y0268727D01*
X0152686Y0268426D01*
X0152726Y0268127D01*
X0152773Y0267829D01*
X0152828Y0267531D01*
X0152889Y0267236D01*
X0152958Y0266942D01*
X0153034Y0266649D01*
X0153117Y0266359D01*
X0153207Y0266070D01*
X0153304Y0265784D01*
X0153407Y0265500D01*
X0153518Y0265219D01*
X0153635Y0264941D01*
X0153759Y0264665D01*
X0153890Y0264393D01*
X0154027Y0264124D01*
X0154170Y0263858D01*
X0154320Y0263596D01*
X0154477Y0263337D01*
X0154639Y0263083D01*
X0154808Y0262832D01*
X0154982Y0262586D01*
X0155163Y0262343D01*
X0155349Y0262106D01*
X0155541Y0261872D01*
X0155739Y0261644D01*
X0155942Y0261420D01*
X0156150Y0261202D01*
X0156364Y0260988D01*
X0156582Y0260780D01*
X0156806Y0260577D01*
X0157034Y0260379D01*
X0157268Y0260187D01*
X0157505Y0260001D01*
X0157748Y0259820D01*
X0157994Y0259646D01*
X0158245Y0259477D01*
X0158499Y0259315D01*
X0158758Y0259158D01*
X0159020Y0259008D01*
X0159286Y0258865D01*
X0159555Y0258728D01*
X0159827Y0258597D01*
X0160103Y0258473D01*
X0160381Y0258356D01*
X0160662Y0258245D01*
X0160946Y0258142D01*
X0161232Y0258045D01*
X0161521Y0257955D01*
X0161811Y0257872D01*
X0162104Y0257796D01*
X0162398Y0257727D01*
X0162693Y0257666D01*
X0162991Y0257611D01*
X0163289Y0257564D01*
X0163588Y0257524D01*
X0163889Y0257491D01*
X0164190Y0257466D01*
X0164491Y0257448D01*
X0164793Y0257437D01*
X0165095Y0257433D01*
M02*
