%
M48
M72
T01C0.0295
T02C0.0320
T03C0.0335
T04C0.0354
T05C0.0360
T06C0.0394
T07C0.0400
T08C0.0600
T09C0.1000
T10C0.1200
%
T01
X21260Y14143
X13598Y25554
X35260Y14143
T02
X29760Y16643
X29760Y17643
T03
X31760Y17393
X34246Y17656
X25260Y27844
X27260Y28643
X28260Y30393
X30510Y34393
X35260Y28393
X19260Y25393
X13760Y33393
X19260Y34893
T04
X23260Y32973
X24260Y32973
X25260Y32973
X26260Y32973
X27260Y32973
X28260Y32973
X29260Y32973
X30260Y32973
X30260Y26873
X29260Y26873
X28260Y26873
X27260Y26873
X26260Y26873
X25260Y26873
X24260Y26873
X23260Y26873
T05
X23260Y19393
X22260Y19393
X21260Y19393
X20260Y19393
X19260Y19393
X18260Y19393
X18260Y15643
X19260Y15643
X20260Y15643
X21260Y15643
X22260Y15643
X23260Y15643
X23260Y12893
X22260Y12893
X19260Y12893
X18260Y12893
X32260Y12893
X33260Y12893
X33260Y15643
X34260Y15643
X35260Y15643
X36260Y15643
X37260Y15643
X37260Y12893
X36260Y12893
X32260Y15643
X32260Y19393
X33260Y19393
X34260Y19393
X35260Y19393
X36260Y19393
X37260Y19393
X37260Y25143
X36260Y25143
X35260Y25143
X36010Y36893
X37010Y36893
X32760Y36893
X31760Y36893
X30010Y36893
X29010Y36893
X27310Y36893
X26310Y36893
X25060Y36893
X24060Y36893
X22260Y36893
X21260Y36893
X17760Y37393
X16760Y37393
X14510Y37393
X13510Y37393
T06
X18255Y23492
X19255Y23492
X20255Y23492
X21255Y23492
X22255Y23492
X23255Y23492
X24255Y23492
X25255Y23492
X26255Y23492
X27255Y23492
X28255Y23492
X29255Y23492
X30255Y23492
X31255Y23492
X32255Y23492
X33255Y23492
X34255Y23492
X35255Y23492
X36255Y23492
X37255Y23492
X37255Y22492
X36255Y22492
X35255Y22492
X34255Y22492
X33255Y22492
X32255Y22492
X31255Y22492
X30255Y22492
X29255Y22492
X28255Y22492
X27255Y22492
X26255Y22492
X25255Y22492
X24255Y22492
X23255Y22492
X22255Y22492
X21255Y22492
X20255Y22492
X19255Y22492
X18255Y22492
X26510Y20393
X27510Y20393
X28510Y20393
X29510Y20393
X29510Y19393
X28510Y19393
X27510Y19393
X26510Y19393
T07
X16010Y28193
X16010Y29193
X16010Y30193
X16010Y31193
X16010Y32193
X16010Y33193
X39010Y33193
X39010Y32193
X39010Y31193
X39010Y30193
X39010Y29193
X39010Y28193
T08
X26510Y14143
T09
X16510Y26993
X16510Y34493
X38510Y34493
X38510Y26993
T10
X13510Y12393
X16310Y13959
X16360Y23009
X39160Y13959
X39210Y23009
X40260Y37393
M30
