<?xml version="1.0" encoding="UTF-8" standalone="no"?>
<!-- Generator: Adobe Illustrator 15.1.0, SVG Export Plug-In . SVG Version: 6.00 Build 0)  -->

<svg
   xmlns:dc="http://purl.org/dc/elements/1.1/"
   xmlns:cc="http://creativecommons.org/ns#"
   xmlns:rdf="http://www.w3.org/1999/02/22-rdf-syntax-ns#"
   xmlns:svg="http://www.w3.org/2000/svg"
   xmlns="http://www.w3.org/2000/svg"
   xmlns:sodipodi="http://sodipodi.sourceforge.net/DTD/sodipodi-0.dtd"
   xmlns:inkscape="http://www.inkscape.org/namespaces/inkscape"
   version="1.1"
   id="Layer_1"
   x="0px"
   y="0px"
   width="512px"
   height="512px"
   viewBox="0 0 512 512"
   enable-background="new 0 0 512 512"
   xml:space="preserve"
   inkscape:version="0.91 r13725"
   sodipodi:docname="03d.svg"><metadata
     id="metadata4311"><rdf:RDF><cc:Work
         rdf:about=""><dc:format>image/svg+xml</dc:format><dc:type
           rdf:resource="http://purl.org/dc/dcmitype/StillImage" /></cc:Work></rdf:RDF></metadata><defs
     id="defs4309" /><sodipodi:namedview
     pagecolor="#ffffff"
     bordercolor="#666666"
     borderopacity="1"
     objecttolerance="10"
     gridtolerance="10"
     guidetolerance="10"
     inkscape:pageopacity="0"
     inkscape:pageshadow="2"
     inkscape:window-width="1242"
     inkscape:window-height="732"
     id="namedview4307"
     showgrid="false"
     inkscape:zoom="0.4609375"
     inkscape:cx="256"
     inkscape:cy="429.55932"
     inkscape:window-x="1096"
     inkscape:window-y="164"
     inkscape:window-maximized="0"
     inkscape:current-layer="Layer_1" /><path
     inkscape:connector-curvature="0"
     style="clip-rule:evenodd;fill:#1d1d1b;fill-rule:evenodd"
     d="m 395.66101,133.9661 c -5.312,0 -10.562,0.375 -15.792,1.125 -29.874,-40.707998 -77.02,-65.124998 -128.208,-65.124998 -51.18799,0 -98.31199,24.417 -128.20799,65.124998 -5.23,-0.75 -10.48,-1.125 -15.792,-1.125 -61.750006,0 -112.0000063,50.25001 -112.0000063,112.00001 0,61.75 50.2500003,112 112.0000063,112 13.688,0 27.084,-2.5 39.709,-7.333 28.957,25.25 65.791,39.333 104.29099,39.333 38.542,0 75.333,-14.083 104.291,-39.333 12.625,4.833 26.021,7.333 39.709,7.333 61.75,0 112,-50.25 112,-112 0,-61.75 -50.25,-112.00001 -112,-112.00001 z m 0,192.00001 c -17.125,0 -32.916,-5.5 -45.938,-14.667 -23.478,28.291 -58.438,46.667 -98.062,46.667 -39.62499,0 -74.58399,-18.376 -98.06199,-46.667 -13,9.167 -28.813,14.667 -45.938,14.667 -44.188003,0 -80.000006,-35.812 -80.000006,-80 0,-44.188 35.812003,-80 80.000006,-80 10.812,0 21.062,2.208 30.438,6.083 21.229,-41.41601 63.853,-70.08301 113.56199,-70.08301 49.709,0 92.334,28.667 113.541,70.08301 9.397,-3.875 19.668,-6.083 30.459,-6.083 44.188,0 80,35.812 80,80 0,44.188 -35.812,80 -80,80 z"
     id="path4305" /></svg>