<?xml version="1.0" encoding="UTF-8" standalone="no"?>
<!-- Generator: Adobe Illustrator 15.1.0, SVG Export Plug-In . SVG Version: 6.00 Build 0)  -->

<svg
   xmlns:dc="http://purl.org/dc/elements/1.1/"
   xmlns:cc="http://creativecommons.org/ns#"
   xmlns:rdf="http://www.w3.org/1999/02/22-rdf-syntax-ns#"
   xmlns:svg="http://www.w3.org/2000/svg"
   xmlns="http://www.w3.org/2000/svg"
   xmlns:sodipodi="http://sodipodi.sourceforge.net/DTD/sodipodi-0.dtd"
   xmlns:inkscape="http://www.inkscape.org/namespaces/inkscape"
   version="1.1"
   id="Layer_1"
   x="0px"
   y="0px"
   width="512px"
   height="512px"
   viewBox="0 0 512 512"
   enable-background="new 0 0 512 512"
   xml:space="preserve"
   inkscape:version="0.91 r13725"
   sodipodi:docname="04d.svg"><metadata
     id="metadata4942"><rdf:RDF><cc:Work
         rdf:about=""><dc:format>image/svg+xml</dc:format><dc:type
           rdf:resource="http://purl.org/dc/dcmitype/StillImage" /></cc:Work></rdf:RDF></metadata><defs
     id="defs4940" /><sodipodi:namedview
     pagecolor="#ffffff"
     bordercolor="#666666"
     borderopacity="1"
     objecttolerance="10"
     gridtolerance="10"
     guidetolerance="10"
     inkscape:pageopacity="0"
     inkscape:pageshadow="2"
     inkscape:window-width="2498"
     inkscape:window-height="1058"
     id="namedview4938"
     showgrid="false"
     showguides="false"
     inkscape:zoom="0.921875"
     inkscape:cx="342.84199"
     inkscape:cy="553.69692"
     inkscape:window-x="54"
     inkscape:window-y="-8"
     inkscape:window-maximized="1"
     inkscape:current-layer="Layer_1" /><path
     style="clip-rule:evenodd;fill:#000000;fill-rule:evenodd;stroke:none;stroke-opacity:1"
     d="m 316.26953,-12.123047 c -39.57787,0 -76.01372,18.8786354 -99.12891,50.353516 -4.04375,-0.579901 -8.10376,-0.869141 -12.21093,-0.869141 -47.73253,0 -86.57659,38.834354 -86.59571,86.562502 1.64729,0.0549 3.29254,0.13553 4.9336,0.2539 32.79414,-40.293003 81.92047,-64.330074 134.90234,-64.330074 52.98053,0 102.1219,24.032928 134.90235,64.330074 3.02112,-0.21787 6.05377,-0.33007 9.09765,-0.33007 39.54223,0 74.99008,18.28656 98.32227,46.82226 8.67399,-13.48602 13.71289,-29.52164 13.71289,-46.71094 0,-47.744264 -38.85339,-86.597652 -86.59766,-86.597652 -4.10717,0 -8.16521,0.28924 -12.20898,0.869141 C 392.30026,6.7555884 355.8474,-12.123047 316.26953,-12.123047 Z"
     id="path4305-8"
     inkscape:connector-curvature="0"
     sodipodi:nodetypes="scsccscscsscs" /><path
     id="path4305-0"
     d="m 397.88728,141.40286 c -5.312,0 -10.562,0.375 -15.792,1.125 -29.874,-40.708 -77.02,-65.125 -128.208,-65.125 -51.18799,0 -98.31199,24.417 -128.20799,65.125 -5.23,-0.75 -10.48,-1.125 -15.792,-1.125 -61.750008,0 -112.0000081,50.25002 -112.0000081,112.00002 0,61.75 50.2500001,111.99999 112.0000081,111.99999 13.688,0 27.084,-2.5 39.709,-7.333 28.957,25.25 65.791,39.333 104.29099,39.333 38.542,0 75.333,-14.083 104.291,-39.333 12.625,4.833 26.021,7.333 39.709,7.333 61.75,0 112,-50.24999 112,-111.99999 0,-61.75 -50.25,-112.00002 -112,-112.00002 z m 0,192.00001 c -17.125,0 -32.916,-5.49999 -45.938,-14.66699 -23.478,28.29099 -58.438,46.66699 -98.062,46.66699 -39.62499,0 -74.58399,-18.376 -98.06199,-46.66699 -13,9.167 -28.813,14.66699 -45.938,14.66699 -44.187998,0 -80.000008,-35.81199 -80.000008,-79.99999 0,-44.188 35.81201,-80.00001 80.000008,-80.00001 10.812,0 21.062,2.208 30.438,6.08301 21.229,-41.41602 63.853,-70.08302 113.56199,-70.08302 49.709,0 92.334,28.667 113.541,70.08302 9.397,-3.87501 19.668,-6.08301 30.459,-6.08301 44.188,0 80,35.81201 80,80.00001 0,44.188 -35.812,79.99999 -80,79.99999 z"
     style="clip-rule:evenodd;fill:#1d1d1b;fill-rule:evenodd"
     inkscape:connector-curvature="0" /></svg>