<?xml version="1.0" encoding="UTF-8" standalone="no"?>
<!-- Generator: Adobe Illustrator 15.1.0, SVG Export Plug-In . SVG Version: 6.00 Build 0)  -->

<svg
   xmlns:dc="http://purl.org/dc/elements/1.1/"
   xmlns:cc="http://creativecommons.org/ns#"
   xmlns:rdf="http://www.w3.org/1999/02/22-rdf-syntax-ns#"
   xmlns:svg="http://www.w3.org/2000/svg"
   xmlns="http://www.w3.org/2000/svg"
   xmlns:sodipodi="http://sodipodi.sourceforge.net/DTD/sodipodi-0.dtd"
   xmlns:inkscape="http://www.inkscape.org/namespaces/inkscape"
   version="1.1"
   id="Layer_1"
   x="0px"
   y="0px"
   width="512px"
   height="512px"
   viewBox="0 0 512 512"
   enable-background="new 0 0 512 512"
   xml:space="preserve"
   inkscape:version="0.91 r13725"
   sodipodi:docname="13d.svg"><metadata
     id="metadata6352"><rdf:RDF><cc:Work
         rdf:about=""><dc:format>image/svg+xml</dc:format><dc:type
           rdf:resource="http://purl.org/dc/dcmitype/StillImage" /></cc:Work></rdf:RDF></metadata><defs
     id="defs6350" /><sodipodi:namedview
     pagecolor="#ffffff"
     bordercolor="#666666"
     borderopacity="1"
     objecttolerance="10"
     gridtolerance="10"
     guidetolerance="10"
     inkscape:pageopacity="0"
     inkscape:pageshadow="2"
     inkscape:window-width="2498"
     inkscape:window-height="1058"
     id="namedview6348"
     showgrid="false"
     inkscape:zoom="0.4609375"
     inkscape:cx="215.15258"
     inkscape:cy="-59.106438"
     inkscape:window-x="54"
     inkscape:window-y="-8"
     inkscape:window-maximized="1"
     inkscape:current-layer="Layer_1" /><g
     id="layer1"
     inkscape:label="Layer 1"
     transform="translate(-58.937958,20.932945)"
     inkscape:export-xdpi="14"
     inkscape:export-ydpi="14"><path
       style="clip-rule:evenodd;fill:#1d1d1b;fill-rule:evenodd"
       inkscape:connector-curvature="0"
       d="m 191.92898,476.83483 c -88.66068,9.48815 -44.33034,4.74407 0,0 z"
       id="path4208-7-2"
       sodipodi:nodetypes="cc"
       inkscape:export-xdpi="14.118432"
       inkscape:export-ydpi="14.118432" /><g
       transform="translate(103.56813,96.04697)"
       id="g4187"><path
         style="clip-rule:evenodd;fill:#000000;fill-rule:evenodd;stroke:none;stroke-opacity:1"
         d="m 316.26953,-12.123047 c -39.57787,0 -76.01372,18.8786354 -99.12891,50.353516 -4.04375,-0.579901 -8.10376,-0.869141 -12.21093,-0.869141 -47.73253,0 -86.57659,38.834354 -86.59571,86.562502 1.64729,0.0549 3.29254,0.13553 4.9336,0.2539 32.79414,-40.293003 81.92047,-64.330074 134.90234,-64.330074 52.98053,0 102.1219,24.032928 134.90235,64.330074 3.02112,-0.21787 6.05377,-0.33007 9.09765,-0.33007 39.54223,0 74.99008,18.28656 98.32227,46.82226 8.67399,-13.48602 13.71289,-29.52164 13.71289,-46.71094 0,-47.744264 -38.85339,-86.597652 -86.59766,-86.597652 -4.10717,0 -8.16521,0.28924 -12.20898,0.869141 C 392.30026,6.7555884 355.8474,-12.123047 316.26953,-12.123047 Z"
         id="path4305-8"
         inkscape:connector-curvature="0"
         sodipodi:nodetypes="scsccscscsscs" /><path
         style="clip-rule:evenodd;fill:#1d1d1b;fill-rule:evenodd"
         d="m 298.51758,194.38281 c -51.18799,0 -98.31103,24.417 -128.20703,65.125 -5.23,-0.75 -10.48097,-1.125 -15.79297,-1.125 -61.750012,0 -112.000002,50.25 -112.000002,112 0,61.75 50.24999,112 112.000002,112 13.688,0 27.08398,-2.49903 39.70898,-7.33203 3.32878,2.90264 6.7633,5.65326 10.29102,8.25586 0.47389,-1.08208 1.00566,-2.14876 1.60937,-3.19336 5.7087,-9.91486 16.0476,-15.67907 26.80274,-16.22851 -12.31281,-7.5301 -23.27694,-17.08477 -32.47461,-28.16797 -13,9.167 -28.8125,14.66601 -45.9375,14.66601 -44.188,0 -80.000002,-35.812 -80.000002,-80 0,-44.188 35.812002,-80 80.000002,-80 10.812,0 21.0615,2.20898 30.4375,6.08399 21.229,-41.41602 63.85351,-70.08399 113.5625,-70.08399 49.709,0 92.33401,28.66797 113.54101,70.08399 9.397,-3.87501 19.66799,-6.08399 30.45899,-6.08399 44.188,0 80,35.812 80,80 0,44.188 -35.812,80 -80,80 -17.125,0 -32.9155,-5.49901 -45.9375,-14.66601 -9.44669,11.38326 -20.75494,21.15488 -33.47656,28.77343 8.96058,1.7837 17.16315,7.22386 22.01171,15.64649 1.19583,2.07353 2.1258,4.23217 2.81641,6.43555 5.15197,-3.53112 10.1208,-7.37435 14.87695,-11.52149 12.625,4.833 26.02099,7.33203 39.70899,7.33203 61.75,0 112,-50.25 112,-112 0,-61.75 -50.25,-112 -112,-112 -5.312,0 -10.56102,0.375 -15.79102,1.125 -29.874,-40.708 -77.02098,-65.125 -128.20898,-65.125 z"
         transform="translate(-44.630172,-116.97992)"
         id="path4305-0"
         inkscape:connector-curvature="0"
         sodipodi:nodetypes="scssscccccssscscssscccccssscs" /></g></g><path
     id="path6346-9-4"
     d="M 532.07062,551.77491 520.898,545.33452 c 0.33642,-1.93907 0.59463,-3.91725 0.59463,-5.97363 0,-2.05576 -0.25821,-4.03456 -0.6207,-5.97425 l 11.19869,-6.45281 c 5.22444,-3.05199 7.00834,-9.76301 4.00849,-14.96138 -3.02654,-5.26293 -9.72453,-7.06048 -14.97442,-4.03456 l -11.28931,6.51736 c -3.02654,-2.57342 -6.43978,-4.5907 -10.24157,-5.96121 l 0,-12.97018 c 0,-6.06487 -4.92713,-10.97896 -10.97896,-10.97896 -6.05184,0 -10.96531,4.91409 -10.96531,10.97896 l 0,12.95714 c -3.80241,1.3581 -7.22869,3.40083 -10.2546,5.97425 l -11.26325,-6.51736 c -5.26292,-3.02592 -11.97456,-1.2414 -15.00048,4.02152 -3.02592,5.22445 -1.20292,11.9485 4.03456,14.97504 l 11.14717,6.43978 c -0.36249,1.95272 -0.59525,3.93152 -0.59525,5.98728 0,2.05638 0.23276,4.03456 0.59525,5.97363 l -11.14655,6.43977 c -5.25051,3.02592 -7.06048,9.77605 -4.03456,15.01352 3.02592,5.23748 9.73756,7.02137 14.97441,3.99608 l 11.27628,-6.47888 c 3.0253,2.56039 6.45281,4.57767 10.26764,5.93514 l 0,12.99624 c 0,6.05122 4.91347,10.93924 10.96531,10.93924 6.05183,0 10.97896,-4.88802 10.97896,-10.93924 l 0,-12.99624 c 3.8018,-1.35809 7.25476,-3.37537 10.2546,-5.97425 l 11.27628,6.51736 c 5.24989,3.02592 11.94788,1.24141 14.97442,-3.99607 3.0253,-5.23685 1.24078,-11.9485 -4.00911,-15.0129 z m -43.47515,-1.43568 c -6.05184,0 -10.97896,-4.92713 -10.97896,-10.97896 0,-6.05184 4.92712,-10.9529 10.97896,-10.9529 6.05183,0 10.96593,4.90106 10.96593,10.9529 0,6.05183 -4.9141,10.97896 -10.96593,10.97896 z"
     inkscape:connector-curvature="0"
     style="clip-rule:evenodd;fill:#1d1d1b;fill-rule:evenodd"
     sodipodi:nodetypes="ccsccccccsssccccccsccscccssscccccsssss"
     inkscape:export-xdpi="14"
     inkscape:export-ydpi="14" /><path
     id="path6346-9-4-7"
     d="m 144.71992,553.56152 -11.17262,-6.44039 c 0.33642,-1.93907 0.59463,-3.91725 0.59463,-5.97363 0,-2.05576 -0.25821,-4.03456 -0.6207,-5.97425 l 11.19869,-6.45281 c 5.22444,-3.05199 7.00834,-9.76301 4.00849,-14.96138 -3.02654,-5.26293 -9.72453,-7.06048 -14.97442,-4.03456 l -11.28931,6.51736 c -3.02654,-2.57342 -6.43978,-4.5907 -10.24157,-5.96121 l 0,-12.97018 c 0,-6.06487 -4.92713,-10.97896 -10.97896,-10.97896 -6.051836,0 -10.965306,4.91409 -10.965306,10.97896 l 0,12.95714 c -3.80241,1.3581 -7.22869,3.40083 -10.2546,5.97425 l -11.26325,-6.51736 c -5.26292,-3.02592 -11.97456,-1.2414 -15.00048,4.02152 -3.02592,5.22445 -1.20292,11.9485 4.03456,14.97504 l 11.14717,6.43978 c -0.36249,1.95272 -0.59525,3.93152 -0.59525,5.98728 0,2.05638 0.23276,4.03456 0.59525,5.97363 l -11.14655,6.43977 c -5.25051,3.02592 -7.06048,9.77605 -4.03456,15.01352 3.02592,5.23748 9.73756,7.02137 14.97441,3.99608 l 11.27628,-6.47888 c 3.0253,2.56039 6.45281,4.57767 10.26764,5.93514 l 0,12.99624 c 0,6.05122 4.91347,10.93924 10.965306,10.93924 6.05183,0 10.97896,-4.88802 10.97896,-10.93924 l 0,-12.99624 c 3.8018,-1.35809 7.25476,-3.37537 10.2546,-5.97425 l 11.27628,6.51736 c 5.24989,3.02592 11.94788,1.24141 14.97442,-3.99607 3.0253,-5.23685 1.24078,-11.9485 -4.00911,-15.0129 z m -43.47515,-1.43568 c -6.051836,0 -10.978956,-4.92713 -10.978956,-10.97896 0,-6.05184 4.92712,-10.9529 10.978956,-10.9529 6.05183,0 10.96593,4.90106 10.96593,10.9529 0,6.05183 -4.9141,10.97896 -10.96593,10.97896 z"
     inkscape:connector-curvature="0"
     style="clip-rule:evenodd;fill:#1d1d1b;fill-rule:evenodd"
     sodipodi:nodetypes="ccsccccccsssccccccsccscccssscccccsssss"
     inkscape:export-xdpi="14"
     inkscape:export-ydpi="14" /><path
     id="path6346-9-7"
     d="m 368.255,551.28917 -18,-10.376 c 0.542,-3.124 0.958,-6.311 0.958,-9.624 0,-3.312 -0.416,-6.5 -1,-9.625 l 18.042,-10.396 c 8.417,-4.917 11.291,-15.729 6.458,-24.104 -4.876,-8.479 -15.667,-11.375 -24.125,-6.5 l -18.188,10.5 c -4.876,-4.146 -10.375,-7.396 -16.5,-9.604 l 0,-20.89601 c 0,-9.771 -7.938,-17.688 -17.688,-17.688 -9.75,0 -17.666,7.917 -17.666,17.688 l 0,20.87501 c -6.126,2.188 -11.646,5.479 -16.521,9.625 l -18.146,-10.5 c -8.479,-4.875 -19.292,-2 -24.167,6.479 -4.875,8.417 -1.938,19.25 6.5,24.126 l 17.959,10.375 c -0.584,3.146 -0.959,6.334 -0.959,9.646 0,3.313 0.375,6.5 0.959,9.624 l -17.958,10.375 c -8.459,4.875 -11.375,15.75 -6.5,24.188 4.875,8.438 15.688,11.312 24.125,6.438 l 18.167,-10.438 c 4.874,4.125 10.396,7.375 16.542,9.562 l 0,20.938 c 0,9.749 7.916,17.624 17.666,17.624 9.75,0 17.688,-7.875 17.688,-17.624 l 0,-20.938 c 6.125,-2.188 11.688,-5.438 16.521,-9.625 l 18.167,10.5 c 8.458,4.875 19.249,2 24.125,-6.438 4.874,-8.437 1.999,-19.25 -6.459,-24.187 z m -70.042,-2.313 c -9.75,0 -17.688,-7.938 -17.688,-17.688 0,-9.75 7.938,-17.646 17.688,-17.646 9.75,0 17.667,7.896 17.667,17.646 0,9.75 -7.917,17.688 -17.667,17.688 z"
     inkscape:connector-curvature="0"
     style="clip-rule:evenodd;fill:#1d1d1b;fill-rule:evenodd"
     sodipodi:nodetypes="ccsccccccsssccccccsccscccssscccccsssss"
     inkscape:export-xdpi="14"
     inkscape:export-ydpi="14" /></svg>