<?xml version="1.0" encoding="UTF-8" standalone="no"?>
<!-- Generator: Adobe Illustrator 15.1.0, SVG Export Plug-In . SVG Version: 6.00 Build 0)  -->

<svg
   xmlns:dc="http://purl.org/dc/elements/1.1/"
   xmlns:cc="http://creativecommons.org/ns#"
   xmlns:rdf="http://www.w3.org/1999/02/22-rdf-syntax-ns#"
   xmlns:svg="http://www.w3.org/2000/svg"
   xmlns="http://www.w3.org/2000/svg"
   xmlns:sodipodi="http://sodipodi.sourceforge.net/DTD/sodipodi-0.dtd"
   xmlns:inkscape="http://www.inkscape.org/namespaces/inkscape"
   version="1.1"
   id="Layer_1"
   x="0px"
   y="0px"
   width="512px"
   height="512px"
   viewBox="0 0 512 512"
   enable-background="new 0 0 512 512"
   xml:space="preserve"
   inkscape:version="0.91 r13725"
   sodipodi:docname="50d.svg"><metadata
     id="metadata7257"><rdf:RDF><cc:Work
         rdf:about=""><dc:format>image/svg+xml</dc:format><dc:type
           rdf:resource="http://purl.org/dc/dcmitype/StillImage" /></cc:Work></rdf:RDF></metadata><defs
     id="defs7255" /><sodipodi:namedview
     pagecolor="#ffffff"
     bordercolor="#666666"
     borderopacity="1"
     objecttolerance="10"
     gridtolerance="10"
     guidetolerance="10"
     inkscape:pageopacity="0"
     inkscape:pageshadow="2"
     inkscape:window-width="997"
     inkscape:window-height="682"
     id="namedview7253"
     showgrid="false"
     inkscape:zoom="0.921875"
     inkscape:cx="462.29141"
     inkscape:cy="-36.511399"
     inkscape:window-x="983"
     inkscape:window-y="88"
     inkscape:window-maximized="0"
     inkscape:current-layer="Layer_1" /><g
     transform="translate(87.864407,42.033898)"
     id="g7247"><g
       id="g7249"><path
         style="fill:#1d1d1b"
         inkscape:connector-curvature="0"
         d="m 112,160 288,0 c 8.833,0 16,-7.167 16,-16 0,-8.833 -7.167,-16 -16,-16 l -288,0 c -8.833,0 -16,7.167 -16,16 0,8.833 7.167,16 16,16 z m 288,32 -288,0 c -8.833,0 -16,7.167 -16,16 0,8.833 7.167,16 16,16 l 288,0 c 8.833,0 16,-7.167 16,-16 0,-8.833 -7.167,-16 -16,-16 z m 0,64 -288,0 c -8.833,0 -16,7.167 -16,16 0,8.833 7.167,16 16,16 l 288,0 c 8.833,0 16,-7.167 16,-16 0,-8.833 -7.167,-16 -16,-16 z m 0,64 -288,0 c -8.833,0 -16,7.167 -16,16 0,8.833 7.167,16 16,16 l 288,0 c 8.833,0 16,-7.167 16,-16 0,-8.833 -7.167,-16 -16,-16 z"
         id="path7251" /></g></g></svg>